<?xml version="1.0" standalone="no"?><!DOCTYPE svg PUBLIC "-//W3C//DTD SVG 1.1//EN" "http://www.w3.org/Graphics/SVG/1.1/DTD/svg11.dtd"><svg t="1673176963830" class="icon" viewBox="0 0 1024 1024" version="1.1" xmlns="http://www.w3.org/2000/svg" p-id="2042" xmlns:xlink="http://www.w3.org/1999/xlink" width="200" height="200"><path d="M581.485714 83.382857c-10.24-10.24-21.942857-16.091429-35.108571-16.091428h-352.548572c-14.628571 0-26.331429 5.851429-35.108571 16.091428-10.24 10.24-16.091429 21.942857-16.091429 36.571429v762.148571c0 4.388571-1.462857 7.314286-4.388571 10.24-2.925714 2.925714-5.851429 2.925714-10.24 2.925714h-16.091429c-4.388571 0-7.314286 1.462857-10.24 4.388572-2.925714 2.925714-4.388571 5.851429-4.388571 10.24v35.108571c0 4.388571 1.462857 7.314286 4.388571 10.24 2.925714 2.925714 5.851429 4.388571 10.24 4.388572h516.388572c4.388571 0 7.314286-1.462857 10.24-4.388572 2.925714-2.925714 4.388571-5.851429 4.388571-10.24v-35.108571c0-4.388571-1.462857-7.314286-4.388571-10.24-2.925714-2.925714-5.851429-4.388571-10.24-4.388572h-16.091429c-4.388571 0-7.314286-1.462857-10.24-2.925714-2.925714-2.925714-4.388571-5.851429-4.388571-10.24v-424.228571h8.777143c16.091429 0 27.794286 5.851429 38.034285 16.091428 7.314286 8.777143 11.702857 19.017143 11.702858 29.257143v220.891429c0 38.034286 13.165714 70.217143 39.497142 96.548571 26.331429 26.331429 58.514286 39.497143 96.548572 39.497143 43.885714 0 80.457143-17.554286 106.788571-52.662857 29.257143-36.571429 36.571429-77.531429 21.942857-122.88-14.628571-45.348571-27.794286-100.937143-40.96-165.302857-13.165714-65.828571-20.48-121.417143-21.942857-165.302857 0-4.388571 2.925714-7.314286 7.314286-8.777143l32.182857-8.777143c7.314286-2.925714 10.24-7.314286 7.314286-16.091429-42.422857-134.582857-118.491429-219.428571-225.28-254.537143-8.777143-2.925714-14.628571 0-17.554286 8.777143-2.925714 8.777143-2.925714 16.091429-2.925714 24.868572 0 7.314286 2.925714 14.628571 7.314286 17.554285 46.811429 42.422857 78.994286 81.92 96.548571 117.028572 20.48 39.497143 33.645714 90.697143 39.497143 155.062857 4.388571 42.422857 11.702857 96.548571 24.868571 160.914286 13.165714 65.828571 24.868571 115.565714 36.571429 149.211428 8.777143 23.405714 4.388571 46.811429-11.702857 67.291429-16.091429 21.942857-36.571429 32.182857-61.44 32.182857-21.942857 0-39.497143-7.314286-55.588572-23.405714-14.628571-14.628571-23.405714-33.645714-23.405714-55.588572V498.834286c0-29.257143-10.24-55.588571-30.72-74.605715-20.48-19.017143-43.885714-29.257143-71.68-29.257142h-11.702857V115.565714c0-10.24-5.851429-21.942857-16.091429-32.182857m-371.565714 49.737143c2.925714-2.925714 5.851429-4.388571 10.24-4.388571h302.811429c4.388571 0 7.314286 1.462857 10.24 4.388571 2.925714 2.925714 4.388571 5.851429 4.388571 10.24v231.131429c0 4.388571-1.462857 7.314286-4.388571 10.24-2.925714 2.925714-5.851429 4.388571-10.24 4.388571h-302.811429c-4.388571 0-7.314286-1.462857-10.24-4.388571-2.925714-2.925714-4.388571-5.851429-4.388571-10.24V143.36c0-4.388571 1.462857-7.314286 4.388571-10.24z" fill="#0B0B0B" p-id="2043"></path></svg>